<?xml version="1.0" standalone="no"?>
<!DOCTYPE svg PUBLIC "-//W3C//DTD SVG 20010904//EN"
 "http://www.w3.org/TR/2001/REC-SVG-20010904/DTD/svg10.dtd">
<svg version="1.0" xmlns="http://www.w3.org/2000/svg"
 width="1025.000000pt" height="1025.000000pt" viewBox="0 0 1025.000000 1025.000000"
 preserveAspectRatio="xMidYMid meet">
<metadata>
Created by potrace 1.11, written by Peter Selinger 2001-2013
</metadata>
<g transform="translate(0.000000,1025.000000) scale(0.100000,-0.100000)"
fill="#000000" stroke="none">
<path d="M4898 9735 c-2 -2 -50 -6 -108 -9 -58 -4 -117 -8 -130 -10 -14 -3
-52 -7 -85 -10 -33 -3 -71 -8 -85 -11 -14 -3 -43 -7 -65 -10 -33 -3 -176 -29
-275 -49 -131 -27 -384 -98 -535 -150 -399 -137 -816 -351 -1150 -590 -27 -20
-58 -41 -69 -48 -33 -22 -238 -187 -306 -246 -76 -65 -365 -353 -430 -428
-342 -392 -635 -867 -818 -1329 -118 -297 -193 -558 -257 -890 -8 -42 -45
-302 -50 -350 -20 -205 -26 -604 -12 -805 7 -93 30 -293 43 -375 2 -16 7 -46
10 -65 17 -105 70 -343 106 -469 148 -529 352 -954 698 -1455 19 -28 112 -149
120 -156 3 -3 17 -21 32 -42 15 -20 33 -42 40 -50 7 -7 38 -43 68 -78 66 -80
363 -378 445 -447 33 -29 71 -61 85 -73 101 -89 551 -410 573 -410 3 0 34 -17
68 -39 35 -21 125 -69 199 -107 120 -62 189 -94 325 -154 91 -40 289 -111 425
-153 131 -40 196 -57 385 -103 48 -11 289 -52 350 -60 22 -2 54 -6 70 -9 17
-2 64 -7 105 -10 41 -4 111 -10 155 -14 84 -8 592 -6 635 2 14 3 65 8 115 12
49 4 101 9 115 11 14 2 39 6 55 9 17 2 53 7 80 10 28 4 69 10 93 16 23 5 59
12 80 15 246 38 713 185 1002 315 188 84 579 298 588 321 2 4 8 8 13 8 25 0
332 225 504 369 86 72 393 372 466 456 133 153 250 304 360 465 63 92 168 259
182 290 4 8 16 30 28 49 59 98 192 374 251 520 60 149 141 387 164 480 2 9 15
57 28 106 27 102 81 362 91 445 4 30 9 62 10 70 2 8 6 47 10 85 4 39 9 77 10
86 25 138 25 733 0 919 -3 19 -7 62 -10 95 -3 33 -8 67 -10 75 -2 8 -7 40 -10
70 -4 30 -20 120 -36 200 -37 181 -32 158 -69 297 -182 681 -523 1316 -999
1858 -64 72 -367 373 -426 422 -28 23 -61 51 -75 63 -14 12 -34 29 -45 38 -11
10 -72 56 -135 103 -330 248 -675 443 -1051 594 -130 53 -402 147 -459 160 -8
2 -51 13 -96 24 -45 12 -90 24 -100 26 -56 13 -274 56 -304 61 -19 3 -46 7
-60 9 -53 8 -187 25 -240 30 -30 2 -82 7 -115 11 -59 6 -561 14 -567 9z"/>
</g>
</svg>
