<?xml version="1.0" standalone="no"?>
<!DOCTYPE svg PUBLIC "-//W3C//DTD SVG 20010904//EN"
 "http://www.w3.org/TR/2001/REC-SVG-20010904/DTD/svg10.dtd">
<svg version="1.0" xmlns="http://www.w3.org/2000/svg"
 width="1025.000000pt" height="1025.000000pt" viewBox="0 0 1025.000000 1025.000000"
 preserveAspectRatio="xMidYMid meet">
<metadata>
Created by potrace 1.11, written by Peter Selinger 2001-2013
</metadata>
<g transform="translate(0.000000,1025.000000) scale(0.100000,-0.100000)"
fill="#000000" stroke="none">
<path d="M4765 9723 c-27 -2 -124 -13 -215 -24 -1135 -140 -2182 -703 -2927
-1572 -846 -989 -1234 -2280 -1072 -3571 11 -88 23 -171 27 -183 6 -20 14 -15
97 60 50 45 237 213 415 372 178 160 416 373 528 473 245 221 347 291 504 348
32 11 40 11 52 -2 9 -9 17 -10 21 -4 4 6 11 8 16 5 5 -3 6 1 3 9 -4 10 -1 16
9 16 10 0 13 -7 10 -20 -3 -11 -12 -20 -20 -20 -8 0 -12 -4 -8 -9 3 -6 -3 -14
-12 -20 -17 -10 -16 -11 2 -9 40 3 66 -2 60 -11 -3 -5 -20 -8 -38 -6 -30 3
-31 3 -8 -8 19 -9 29 -8 55 7 179 107 343 134 519 87 127 -33 215 -87 432
-262 110 -89 279 -220 375 -292 96 -72 285 -215 420 -317 135 -103 309 -233
388 -290 78 -56 142 -107 142 -111 0 -5 -10 -19 -22 -31 -16 -16 -17 -20 -5
-15 9 3 17 2 17 -3 0 -6 -5 -10 -11 -10 -5 0 -7 -4 -4 -10 3 -5 2 -10 -4 -10
-6 0 -7 -8 -4 -17 5 -13 2 -15 -11 -10 -9 4 -15 3 -11 -2 3 -5 1 -12 -5 -16
-6 -4 -8 -11 -4 -16 3 -5 0 -16 -6 -24 -7 -8 -10 -19 -8 -24 3 -8 39 11 288
157 102 59 898 539 1040 627 446 274 1018 619 1070 645 305 153 701 164 1024
30 43 -18 186 -98 319 -177 894 -536 1480 -882 1487 -878 7 5 25 216 35 430
13 263 -26 697 -91 1025 -199 1001 -738 1919 -1517 2587 -740 633 -1643 1010
-2622 1093 -110 9 -610 11 -730 3z m-2509 -4110 c-10 -10 -19 5 -10 18 6 11 8
11 12 0 2 -7 1 -15 -2 -18z"/>
<path d="M2153 5606 c-9 -11 -9 -15 0 -19 7 -3 14 3 14 14 2 22 2 22 -14 5z"/>
<path d="M2847 3327 c-3 -8 3 -14 16 -15 12 0 17 2 12 6 -6 4 -13 11 -16 15
-4 4 -9 2 -12 -6z"/>
<path d="M2868 3293 c7 -3 16 -2 19 1 4 3 -2 6 -13 5 -11 0 -14 -3 -6 -6z"/>
<path d="M2875 3250 c-3 -6 1 -7 9 -4 18 7 21 14 7 14 -6 0 -13 -4 -16 -10z"/>
</g>
</svg>
